<?xml version="1.0" encoding="UTF-8" standalone="no"?>
<!DOCTYPE svg PUBLIC "-//W3C//DTD SVG 1.1//EN" "http://www.w3.org/Graphics/SVG/1.1/DTD/svg11.dtd">
<svg width="100%" height="100%" viewBox="0 0 1117 892" version="1.1" xmlns="http://www.w3.org/2000/svg" xmlns:xlink="http://www.w3.org/1999/xlink" xml:space="preserve" xmlns:serif="http://www.serif.com/" style="fill-rule:evenodd;clip-rule:evenodd;stroke-linecap:round;stroke-linejoin:round;stroke-miterlimit:1.5;">
    <g id="画板1" transform="matrix(0.954207,0,0,0.976787,-664.382,-247.343)">
        <rect x="696.266" y="253.221" width="1170.03" height="912.552" style="fill:none;"/>
        <g transform="matrix(1.04799,0,0,1.02376,-60.1837,-20.9858)">
            <path d="M1639.49,679.525l32.795,32.794m-0,-32.794l-32.795,32.794" style="fill:none;stroke:#f00;stroke-width:4px;"/>
        </g>
        <g transform="matrix(0.923202,0,0,0.90186,75.2895,121.747)">
            <rect x="1634.48" y="533.609" width="37.307" height="37.307" style="fill:none;stroke:#f00;stroke-width:4.54px;"/>
        </g>
        <g transform="matrix(1.00662,0,0,0.997527,-3.92375,-7.67218)">
            <path d="M1668.06,540.081l21.036,34.232l-42.072,0l21.036,-34.232Z" style="fill:none;stroke:#f00;stroke-width:4.13px;"/>
        </g>
        <g transform="matrix(1.04799,0,0,1.02376,-63.5968,-18.369)">
            <circle cx="1729.14" cy="623.366" r="19.1" style="fill:none;stroke:#f00;stroke-width:4px;"/>
        </g>
        <g id="r2" transform="matrix(1.19695,0,0,1.20074,-286.588,-56.1541)">
            <path d="M1579.77,357.225l100,0c10.78,0 -1.093,-94.568 -69.097,-94.568c-32.676,-0 -45.362,94.568 -30.903,94.568Z" style="fill:none;stroke:#f00;stroke-width:3.46px;"/>
        </g>
        <g id="l2" transform="matrix(-1.19695,0,0,1.20074,2851.49,-56.1541)">
            <path d="M1579.77,357.225l100,0c10.78,0 -1.093,-94.568 -69.097,-94.568c-32.676,-0 -45.362,94.568 -30.903,94.568Z" style="fill:none;stroke:#f00;stroke-width:3.46px;"/>
        </g>
        <g id="dpad-up" transform="matrix(1.04799,0,0,1.02376,-59.2527,-26.3824)">
            <g transform="matrix(1,0,0,1,0,3)">
                <path d="M934.408,542.109c0,-11.215 -9.091,-20.306 -20.305,-20.306l-28.889,0c-11.214,0 -20.305,9.091 -20.305,20.306l-0,24.335c-0,6.287 2.397,12.336 6.703,16.916c6.856,7.293 17.331,18.435 23.35,24.838c1.219,1.296 2.918,2.031 4.696,2.031c1.779,-0 3.478,-0.735 4.697,-2.031c6.019,-6.403 16.494,-17.545 23.35,-24.838c4.306,-4.58 6.703,-10.629 6.703,-16.916c0,-6.765 0,-16.012 0,-24.335Z" style="fill:none;stroke:#f00;stroke-width:4px;"/>
            </g>
            <path d="M889.258,543.129l18.658,-0l-9.081,-9.08l-9.577,9.08Z" style="fill:#f00;"/>
        </g>
        <g id="dpad-down" transform="matrix(1.04799,0,0,-1.02376,-59.2527,1264.91)">
            <g transform="matrix(1,0,0,1,0,3)">
                <path d="M934.408,542.109c0,-11.215 -9.091,-20.306 -20.305,-20.306l-28.889,0c-11.214,0 -20.305,9.091 -20.305,20.306l-0,24.125c-0,6.412 2.493,12.572 6.953,17.178c6.884,7.11 17.23,17.796 23.166,23.927c1.214,1.254 2.885,1.962 4.63,1.962c1.746,-0 3.417,-0.708 4.631,-1.962c5.936,-6.131 16.282,-16.817 23.166,-23.927c4.459,-4.606 6.953,-10.766 6.953,-17.178c0,-6.746 0,-15.888 0,-24.125Z" style="fill:none;stroke:#f00;stroke-width:4px;"/>
            </g>
            <path d="M889.258,543.129l18.658,-0l-9.081,-9.08l-9.577,9.08Z" style="fill:#f00;"/>
        </g>
        <g id="dpad-left" transform="matrix(6.41709e-17,-1.02376,-1.04799,-6.26875e-17,1543.94,1539.75)">
            <g transform="matrix(1,0,0,1,0,3)">
                <path d="M934.408,542.109c0,-11.215 -9.091,-20.306 -20.305,-20.306c-9.095,0 -19.794,0 -28.889,0c-11.214,0 -20.305,9.091 -20.305,20.306l-0,24.349c-0,6.278 2.391,12.32 6.687,16.899c6.644,7.081 16.654,17.749 22.433,23.908c1.195,1.273 2.855,2.007 4.601,2.034c1.746,0.027 3.428,-0.656 4.662,-1.892c6.094,-6.105 16.777,-16.81 23.9,-23.946c4.621,-4.63 7.216,-10.905 7.216,-17.446c0,-6.724 0,-15.758 0,-23.906Z" style="fill:none;stroke:#f00;stroke-width:4px;"/>
            </g>
            <path d="M889.258,543.129l18.658,-0l-9.081,-9.08l-9.577,9.08Z" style="fill:#f00;"/>
        </g>
        <g id="dpad-right" transform="matrix(-6.41709e-17,-1.02376,1.04799,-6.26875e-17,223.22,1539.75)">
            <g transform="matrix(1,0,0,1,0,3)">
                <path d="M934.408,542.109c0,-11.215 -9.091,-20.306 -20.305,-20.306l-28.889,0c-11.214,0 -20.305,9.091 -20.305,20.306l-0,24.349c-0,6.278 2.391,12.32 6.687,16.899c6.644,7.081 16.654,17.749 22.433,23.908c1.195,1.273 2.855,2.007 4.601,2.034c1.746,0.027 3.428,-0.656 4.662,-1.892c6.094,-6.105 16.777,-16.81 23.9,-23.946c4.621,-4.63 7.216,-10.905 7.216,-17.446c0,-6.724 0,-15.758 0,-23.906Z" style="fill:none;stroke:#f00;stroke-width:4px;"/>
            </g>
            <path d="M889.258,543.129l18.658,-0l-9.081,-9.08l-9.577,9.08Z" style="fill:#f00;"/>
        </g>
        <g id="cross" transform="matrix(1.04799,0,0,1.02376,-69.8487,153.587)">
            <circle cx="1665.11" cy="525.401" r="34.957" style="fill:none;stroke:#f00;stroke-width:4px;"/>
        </g>
        <g id="rect" transform="matrix(1.04799,0,0,1.02376,-143.208,81.9239)">
            <circle cx="1665.11" cy="525.401" r="34.957" style="fill:none;stroke:#f00;stroke-width:4px;"/>
        </g>
        <g id="circle" transform="matrix(1.04799,0,0,1.02376,3.51071,81.9239)">
            <circle cx="1665.11" cy="525.401" r="34.957" style="fill:none;stroke:#f00;stroke-width:4px;"/>
        </g>
        <g id="triangle" transform="matrix(1.04799,0,0,1.02376,-69.8487,10.2604)">
            <circle cx="1665.11" cy="525.401" r="34.957" style="fill:none;stroke:#f00;stroke-width:4px;"/>
        </g>
        <g id="border1" transform="matrix(1.04799,0,0,1.02376,-59.2527,-21.0995)">
            <path d="M821.891,1149.7c8.551,1.608 62.356,4.095 68.379,-3.153c33.931,-40.826 69.522,-154.236 85.416,-196.139c9.792,-25.814 35.401,-37.882 67.492,-40.687c30.597,13.569 45.149,13.981 96.708,3.593l280.228,0c51.559,10.388 66.111,9.976 96.708,-3.593c32.091,2.805 57.7,14.873 67.492,40.687c15.894,41.903 51.485,155.313 85.416,196.139c6.023,7.248 59.828,4.761 68.379,3.153" style="fill:none;stroke:#f00;stroke-width:4px;"/>
        </g>
        <g id="border2" transform="matrix(1.04799,0,0,1.02376,-59.2527,-21.0995)">
            <path d="M1003.45,436.511c13.841,1.795 27.681,-1.159 41.522,-6.511" style="fill:none;stroke:#f00;stroke-width:4px;"/>
        </g>
        <g id="mute" transform="matrix(1.04799,0,0,1.02376,-61.8321,-20.6709)">
            <path d="M1313.44,858.8c-0,-3.699 -2.999,-6.698 -6.698,-6.698c-11.914,0 -36.653,0 -48.567,0c-3.699,0 -6.698,2.999 -6.698,6.698c-0,0.001 -0,0.001 -0,0.002c-0,3.699 2.999,6.698 6.698,6.698c11.914,-0 36.653,-0 48.567,-0c3.699,-0 6.698,-2.999 6.698,-6.698c-0,-0.001 -0,-0.001 -0,-0.002Z" style="fill:none;stroke:#f00;stroke-width:4px;"/>
        </g>
        <g id="border3" transform="matrix(-1.04799,0,0,1.02376,2623.29,-21.0995)">
            <path d="M1003.45,436.511c13.841,1.795 27.681,-1.159 41.522,-6.511" style="fill:none;stroke:#f00;stroke-width:4px;"/>
        </g>
        <g id="right-hat" transform="matrix(1.04799,0,0,1.02376,-54.0127,-21.0995)">
            <path d="M1536.64,461.082c5.479,-25.984 25.743,-37.756 62.283,-33.902c40.742,4.297 79.814,11.919 115.423,22.309c11.906,3.474 23.487,8.274 28.391,18.671c91.01,192.962 106.846,408.795 55.912,643.083c-2.947,13.556 -9.046,24.221 -21.05,32.104c-5.842,3.837 -12.586,7.061 -21.885,9.445c-21.563,5.529 -31.041,-9.866 -33.637,-23.757c-33.415,-178.821 -88.678,-342.348 -191.662,-450.233c-9.318,-9.761 -18.181,-31.681 -20.635,-51.734c-0.97,-7.925 -0.451,-15.333 0.462,-22.036c6.052,-44.414 16.477,-96.901 26.398,-143.95Z" style="fill:none;stroke:#f00;stroke-width:4px;"/>
        </g>
        <g id="left-hat" transform="matrix(-1.04799,0,0,1.02376,2617.56,-21.0995)">
            <path d="M1536.64,461.082c5.479,-25.984 25.743,-37.756 62.283,-33.902c40.742,4.297 79.814,11.919 115.423,22.309c11.906,3.474 23.487,8.274 28.391,18.671c91.01,192.962 106.846,408.795 55.912,643.083c-2.947,13.556 -9.046,24.221 -21.05,32.104c-5.842,3.837 -12.586,7.061 -21.885,9.445c-21.563,5.529 -31.041,-9.866 -33.637,-23.757c-33.415,-178.821 -88.678,-342.348 -191.662,-450.233c-9.318,-9.761 -18.181,-31.681 -20.635,-51.734c-0.97,-7.925 -0.451,-15.333 0.462,-22.036c6.052,-44.414 16.477,-96.901 26.398,-143.95Z" style="fill:none;stroke:#f00;stroke-width:4px;"/>
        </g>
        <g transform="matrix(1.04799,0,0,1.02376,-59.2527,-21.0995)">
            <path id="touchpad" d="M1280,410.968c0,-0 158.534,-0.805 226.555,15.497c12.437,2.98 21.237,14.506 19.467,24.644c-8.942,51.221 -20.354,109.033 -30.531,160.023c-8.028,40.224 -40.893,53.816 -68.431,53.692c-27.538,-0.124 -147.06,-0.559 -147.06,-0.559c-0,-0 -119.522,0.435 -147.06,0.559c-27.538,0.124 -60.403,-13.468 -68.431,-53.692c-10.177,-50.99 -21.589,-108.802 -30.531,-160.023c-1.77,-10.138 7.03,-21.664 19.467,-24.644c68.021,-16.302 226.555,-15.497 226.555,-15.497Z" style="fill:none;stroke:#f00;stroke-width:4px;"/>
            <circle id="t2" cx="1110.4" cy="474.043" r="19.473" style="fill:#f00;"/>
            <g id="t1" transform="matrix(1,0,0,1,38.9461,0)">
                <circle cx="1110.4" cy="474.043" r="19.473" style="fill:#f00;"/>
            </g>
        </g>
        <g id="r1" transform="matrix(1.04799,0,0,1.02376,-53.1719,-21.1936)">
            <path d="M1710.79,448.465c-0.736,-29.243 -151.654,-71.589 -148.1,-18.465c9.518,-3.396 21.562,-4.367 36.228,-2.82c39.391,4.155 77.222,11.417 111.872,21.285Z" style="fill:none;stroke:#f00;stroke-width:4px;"/>
        </g>
        <g id="l1" transform="matrix(-1.04799,0,0,1.02376,2617.56,-21.0995)">
            <path d="M1710.79,448.465c-0.736,-29.243 -151.654,-71.589 -148.1,-18.465c9.518,-3.396 21.562,-4.367 36.228,-2.82c39.391,4.155 77.222,11.417 111.872,21.285Z" style="fill:none;stroke:#f00;stroke-width:4px;"/>
        </g>
        <g id="options" transform="matrix(1.00731,0.196365,-0.166064,0.812946,93.6712,-230.389)">
            <path d="M1550.36,480.226l0,40.192c0,0 -0.187,15 14.671,15c14.857,0 14.67,-15 14.67,-15l-0,-40.393c-0,0 0.189,-15.001 -14.67,-14.899c-14.86,0.101 -14.671,15.1 -14.671,15.1Z" style="fill:none;stroke:#f00;stroke-width:4.45px;"/>
        </g>
        <g id="create" transform="matrix(-1.00731,0.196365,0.166064,0.812946,2489.53,-230.389)">
            <path d="M1566.37,476.359l0,40.193c0,-0 -0.187,15 14.67,15c14.858,-0 14.671,-15 14.671,-15l-0,-40.394c-0,0 0.189,-15.001 -14.671,-14.899c-14.859,0.101 -14.67,15.1 -14.67,15.1Z" style="fill:none;stroke:#f00;stroke-width:4.45px;"/>
        </g>
        <g id="create-icon" transform="matrix(1.04799,0,0,1.02376,-60.7353,-17.8077)">
            <path d="M985.029,452.795l-4.527,-7.079l4.527,7.079Z" style="fill:none;stroke:#f00;stroke-width:4px;"/>
            <path d="M992.053,450.079l-0,-8.726l-0,8.726Z" style="fill:none;stroke:#f00;stroke-width:4px;"/>
            <path d="M997.87,452.795l5.186,-7.079" style="fill:none;stroke:#f00;stroke-width:4px;"/>
        </g>
        <g id="options-icon" transform="matrix(1.04799,0,0,1.02376,-59.2527,-21.0995)">
            <g transform="matrix(1,0,0,1,-3,-2)">
                <path d="M1580.81,444.569l-13.987,-0l13.987,-0Z" style="fill:none;stroke:#f00;stroke-width:4px;"/>
            </g>
            <g transform="matrix(1,0,0,1,-3,-2)">
                <path d="M1580.81,450.289l-13.987,0l13.987,0Z" style="fill:none;stroke:#f00;stroke-width:4px;"/>
            </g>
            <g transform="matrix(1,0,0,1,-3,-2)">
                <path d="M1580.81,456.01l-13.987,0" style="fill:none;stroke:#f00;stroke-width:4px;"/>
            </g>
        </g>
        <g id="r3" transform="matrix(1.04799,0,0,1.02376,-59.2527,-21.0995)">
            <g id="r3-border" transform="matrix(1.11981,0,0,1.11981,-187.697,-89.8877)">
                <circle cx="1493.18" cy="791.553" r="78.002" style="fill:none;stroke:#f00;stroke-width:3.57px;"/>
            </g>
            <g id="r31" serif:id="r3" transform="matrix(0.733227,0,0,0.733227,389.538,216.112)">
                <circle cx="1493.18" cy="791.553" r="78.002" style="fill:#900000;stroke:#f00;stroke-width:5.46px;"/>
            </g>
        </g>
        <g id="l3" transform="matrix(1.04799,0,0,1.02376,-59.2527,-21.0995)">
            <g id="l3-border" transform="matrix(1.11981,0,0,1.11981,-599.389,-89.8877)">
                <circle cx="1493.18" cy="791.553" r="78.002" style="fill:none;stroke:#f00;stroke-width:3.57px;"/>
            </g>
            <g id="l31" serif:id="l3" transform="matrix(0.733227,0,0,0.733227,-22.1542,216.112)">
                <circle cx="1493.18" cy="791.553" r="78.002" style="fill:#900000;stroke:#f00;stroke-width:5.46px;"/>
            </g>
        </g>
        <g id="ps" transform="matrix(0.111834,0,0,0.109248,1237.45,737.829)">
            <path d="M81.55,606.2c-59.35,-17.025 -69.175,-52.1 -42.25,-72.475c19.4,-12.75 41.7,-23.85 65.3,-32.2l2.175,-0.675l175.425,-62.9l0,72.25l-125.75,45.975c-22.025,8.475 -25.775,19.75 -7.475,25.8c9.125,2.325 19.575,3.675 30.35,3.675c15.375,0 30.1,-2.725 43.725,-7.7l-0.875,0.275l60.55,-22.05l0,64.8c-3.75,0.925 -8,1.375 -12.175,2.275c-19.375,3.4 -41.675,5.35 -64.425,5.35c-44.45,0 -87.15,-7.45 -126.95,-21.15l2.75,0.825l-0.375,-2.075Zm369.675,7.4l196.7,-71.075c22.325,-8.05 25.8,-19.525 7.675,-25.55c-9.075,-2.225 -19.475,-3.5 -30.2,-3.5c-15.55,0 -30.5,2.7 -44.35,7.625l0.925,-0.275l-131.375,46.85l0,-74.575l7.5,-2.65c26.25,-8.725 57.1,-15.5 88.925,-19.025l2.075,-0.2c11.7,-1.25 25.25,-1.95 38.975,-1.95c46.925,0 91.925,8.275 133.575,23.475l-2.7,-0.875c57.725,18.775 63.725,45.975 49.225,64.725c-13.975,13.925 -30.875,24.95 -49.7,32.05l-0.975,0.325l-266.925,97.075l0,-71.725l0.65,-0.725Zm-145.45,-507.4l0,548.175l122.3,39.4l0,-459.75c0,-21.55 9.5,-35.95 24.8,-30.95c19.875,5.625 23.75,25.425 23.75,47.025l0,183.55c76.25,37.275 136.275,-0.075 136.275,-98.475c0,-101.125 -35.175,-146.05 -138.65,-182.05c-44.625,-16.2 -101,-32.35 -158.675,-45.125l-9.725,-1.8l-0.075,0Z" style="fill:#f00;fill-rule:nonzero;"/>
        </g>
    </g>
</svg>
