<svg width="32" height="32" viewBox="0 0 32 32" fill="none" xmlns="http://www.w3.org/2000/svg">
<g id="curve-steady">
<path id="Vector 1" d="M2.88921 27.2595C2.48023 27.8729 2.646 28.7018 3.25948 29.1108C3.87295 29.5198 4.70181 29.354 5.11079 28.7405L2.88921 27.2595ZM29.3121 4.24603C29.448 3.52135 28.9707 2.82374 28.246 2.68787C27.5214 2.55199 26.8237 3.0293 26.6879 3.75397L29.3121 4.24603ZM25 20L25.156 21.3259C25.7361 21.2576 26.2045 20.8201 26.3121 20.246L25 20ZM8 22L7.84402 20.6741L7.23138 20.7462L6.88921 21.2595L8 22ZM25 20L26.3121 20.246L29.3121 4.24603L28 4L26.6879 3.75397L23.6879 19.754L25 20ZM4 28L5.11079 28.7405L9.11079 22.7405L8 22L6.88921 21.2595L2.88921 27.2595L4 28ZM8 22L8.15598 23.3259L25.156 21.3259L25 20L24.844 18.6741L7.84402 20.6741L8 22Z" fill="black"/>
</g>
</svg>
