<svg width="32" height="32" viewBox="0 0 32 32" fill="none" xmlns="http://www.w3.org/2000/svg">
<g id="curve-dynamic">
<path id="Vector 1" d="M3.40297 26.8059C2.74351 27.1357 2.47621 27.9376 2.80594 28.597C3.13567 29.2565 3.93757 29.5238 4.59703 29.1941L3.40297 26.8059ZM28.597 5.19406C29.2565 4.86433 29.5238 4.06243 29.1941 3.40297C28.8643 2.74351 28.0624 2.47621 27.403 2.80594L28.597 5.19406ZM20 8L19.403 6.80594C19.1446 6.93512 18.9351 7.14461 18.8059 7.40297L20 8ZM12 24L12.597 25.1941L12.9951 24.9951L13.1941 24.597L12 24ZM20 8L20.597 9.19406L28.597 5.19406L28 4L27.403 2.80594L19.403 6.80594L20 8ZM4 28L4.59703 29.1941L12.597 25.1941L12 24L11.403 22.8059L3.40297 26.8059L4 28ZM12 24L13.1941 24.597L21.1941 8.59703L20 8L18.8059 7.40297L10.8059 23.403L12 24Z" fill="black"/>
</g>
</svg>
