<svg width="32" height="32" viewBox="0 0 32 32" fill="none" xmlns="http://www.w3.org/2000/svg">
<g id="curve-digital">
<path id="Vector 1" d="M3.53125 26.75C2.84089 27.0089 2.49112 27.7784 2.75 28.4687C3.00888 29.1591 3.77839 29.5089 4.46875 29.25L3.53125 26.75ZM28 5.335C28.7373 5.335 29.335 4.7373 29.335 4C29.335 3.2627 28.7373 2.665 28 2.665V5.335ZM13 4V2.665C12.2874 2.665 11.7004 3.22469 11.6665 3.9365L13 4ZM12 25L12.4687 26.25L13.2917 25.9414L13.3335 25.0635L12 25ZM13 4V5.335H28V4V2.665H13V4ZM4 28L4.46875 29.25L12.4687 26.25L12 25L11.5313 23.75L3.53125 26.75L4 28ZM12 25L13.3335 25.0635L14.3335 4.0635L13 4L11.6665 3.9365L10.6665 24.9365L12 25Z" fill="black"/>
</g>
</svg>
