<svg width="27" height="27" viewBox="0 0 27 27" fill="none" xmlns="http://www.w3.org/2000/svg">
<g id="varient=a-solid">
<path id="Exclude" d="M13.6664 0C21.0301 0 27.0002 5.96936 27.0004 13.333C27.0004 20.6968 21.0302 26.667 13.6664 26.667C6.30273 26.6668 0.333374 20.6967 0.333374 13.333C0.33355 5.96947 6.30284 0.000176267 13.6664 0ZM13.6674 3.33398C13.2098 3.33398 12.7892 3.56787 12.5463 3.94531L12.4535 4.11523L5.7865 18.7822C5.48209 19.4525 5.77837 20.2432 6.44861 20.5479C7.11873 20.8521 7.90947 20.5557 8.21423 19.8857L9.98083 16H17.3539L19.1195 19.8857L19.183 20.0068C19.5235 20.59 20.257 20.8331 20.8851 20.5479C21.5132 20.2622 21.8135 19.5492 21.598 18.9092L21.5472 18.7822L14.8812 4.11523C14.665 3.63945 14.1899 3.33425 13.6674 3.33398ZM16.142 13.334H11.1927L13.6664 7.88867L16.142 13.334Z" fill="black"/>
</g>
</svg>
