<svg width="30" height="30" viewBox="0 0 30 30" fill="none" xmlns="http://www.w3.org/2000/svg">
<g id="varient=b-solid">
<path id="Exclude" d="M14.6664 0.666992C22.7664 0.666992 29.3332 7.23298 29.3334 15.333C29.3334 23.4332 22.7666 30 14.6664 30C6.56635 29.9998 0.000366211 23.4331 0.000366211 15.333C0.000542489 7.23309 6.56646 0.667168 14.6664 0.666992ZM10.6664 6.66699C9.97633 6.66718 9.40867 7.19126 9.34021 7.86328L9.33337 8V22.667C9.33355 23.4031 9.93028 23.9998 10.6664 24H16.5541C19.3731 23.9998 21.3332 21.419 21.3334 18.667C21.3334 16.8365 20.4653 15.0824 19.0551 14.1123C19.6455 13.3421 19.9994 12.385 19.9994 11.333C19.9992 8.70555 17.7965 6.66716 15.1947 6.66699H10.6664ZM16.5541 16C17.5413 16.0002 18.6664 17.0008 18.6664 18.667C18.6662 20.333 17.5413 21.3328 16.5541 21.333H11.9994V16H16.5541ZM15.1947 9.33301C16.4271 9.33317 17.3332 10.2796 17.3334 11.333C17.3334 12.3865 16.4272 13.3328 15.1947 13.333H11.9994V9.33301H15.1947Z" fill="black"/>
</g>
</svg>
