<svg width="30" height="30" viewBox="0 0 30 30" fill="none" xmlns="http://www.w3.org/2000/svg">
<g id="varient=b-twotone-bordered">
<g id="Group 14">
<mask id="mask0_19_9" style="mask-type:luminance" maskUnits="userSpaceOnUse" x="0" y="0" width="30" height="30">
<g id="Group">
<path id="Vector" d="M15.3333 28.6667C22.6971 28.6667 28.6667 22.6971 28.6667 15.3333C28.6667 7.96954 22.6971 2 15.3333 2C7.96954 2 2 7.96954 2 15.3333C2 22.6971 7.96954 28.6667 15.3333 28.6667Z" fill="#555555" stroke="white" stroke-width="2.66667" stroke-linecap="round" stroke-linejoin="round"/>
<path id="Vector_2" d="M11.3334 14.6667V8H15.8614C17.7787 8 19.3334 9.49267 19.3334 11.3333C19.3334 13.174 17.7787 14.6667 15.8614 14.6667H11.3334ZM11.3334 14.6667H17.2207C19.124 14.6667 20.6667 16.4573 20.6667 18.6667C20.6667 20.876 19.124 22.6667 17.2207 22.6667H11.3334V14.6667Z" stroke="white" stroke-width="2.66667" stroke-linecap="round" stroke-linejoin="round"/>
</g>
</mask>
<g mask="url(#mask0_19_9)">
<path id="Vector_3" d="M-0.666626 -0.666672H31.3334V31.3333H-0.666626V-0.666672Z" fill="black"/>
</g>
</g>
</g>
</svg>
