<svg width="30" height="30" viewBox="0 0 30 30" fill="none" xmlns="http://www.w3.org/2000/svg">
<g id="variant=circle-solid">
<path id="Exclude" d="M14.6664 0.666992C22.7664 0.666992 29.3332 7.23298 29.3334 15.333C29.3334 23.4332 22.7666 30 14.6664 30C6.56635 29.9998 0.000366211 23.4331 0.000366211 15.333C0.000542489 7.23309 6.56646 0.667168 14.6664 0.666992ZM14.6664 6C9.51197 6.00016 5.33355 10.1786 5.33337 15.333C5.33337 20.4876 9.51186 24.6658 14.6664 24.666C19.821 24.666 23.9994 20.4877 23.9994 15.333C23.9992 10.1785 19.8209 6 14.6664 6ZM14.6664 8.66602C18.3482 8.66602 21.3332 11.6513 21.3334 15.333C21.3334 19.0149 18.3483 22 14.6664 22C10.9846 21.9998 7.99939 19.0148 7.99939 15.333C7.99957 11.6514 10.9847 8.66618 14.6664 8.66602Z" fill="black"/>
</g>
</svg>
