<svg width="30" height="30" viewBox="0 0 30 30" fill="none" xmlns="http://www.w3.org/2000/svg">
<path d="M14.666 1.47736e-06C17.9662 1.47736e-06 20.5554 -0.00253846 22.5215 0.215822C24.4775 0.433155 26.1117 0.893357 27.2754 2.05664C28.4391 3.22031 28.8988 4.8544 29.1162 6.81055C29.3347 8.77664 29.333 11.3655 29.333 14.666C29.333 17.9665 29.3346 20.5554 29.1162 22.5215C28.8988 24.4779 28.4392 26.1116 27.2754 27.2754C26.1116 28.4391 24.4778 28.8988 22.5215 29.1162C20.5554 29.3346 17.9663 29.333 14.666 29.333C11.3656 29.333 8.77659 29.3347 6.81055 29.1162C4.8545 28.8988 3.22027 28.439 2.05664 27.2754C0.893357 26.1117 0.433155 24.4775 0.215822 22.5215C-0.00256589 20.5554 1.47719e-06 17.9664 1.47719e-06 14.666C1.24568e-06 11.3655 -0.00263321 8.77664 0.215822 6.81055C0.433202 4.8544 0.893039 3.22034 2.05664 2.05664C3.22029 0.892997 4.85445 0.433224 6.81055 0.215822C8.77659 -0.0026272 11.3656 1.09792e-06 14.666 1.47736e-06ZM8.22754 10.8066C7.93695 10.1293 7.15118 9.8151 6.47363 10.1055C5.7962 10.396 5.48221 11.1818 5.77246 11.8594L8.77246 18.8594C9.06297 19.5369 9.84877 19.8509 10.5264 19.5605C11.2039 19.27 11.5179 18.4842 11.2275 17.8066L8.22754 10.8066ZM22.5264 10.1055C21.8488 9.81521 21.063 10.1293 20.7725 10.8066L17.7725 17.8066C17.4821 18.4842 17.7962 19.27 18.4736 19.5605C19.1512 19.851 19.937 19.5369 20.2275 18.8594L23.2275 11.8594C23.5179 11.1818 23.2039 10.396 22.5264 10.1055ZM14.5 9.99805C13.7628 9.99811 13.1651 10.5958 13.165 11.333V18.333C13.165 19.0703 13.7628 19.6679 14.5 19.668C15.2373 19.668 15.835 19.0703 15.835 18.333V11.333C15.8349 10.5958 15.2372 9.99805 14.5 9.99805Z" fill="black"/>
</svg>
