<svg width="46" height="31" viewBox="0 0 46 31" fill="none" xmlns="http://www.w3.org/2000/svg">
<g id="varient=fn-solid">
<path id="Exclude" d="M36 0.665039C41.1556 0.665039 45.335 4.84442 45.335 10V21C45.335 26.1556 41.1556 30.335 36 30.335H10C4.84442 30.335 0.665039 26.1556 0.665039 21V10C0.665039 4.84442 4.84442 0.665039 10 0.665039H36ZM26 12.166C25.3098 12.166 24.7423 12.6912 24.6738 13.3633L24.667 13.5V23.083C24.667 23.8194 25.2636 24.416 26 24.416C26.7364 24.416 27.333 23.8194 27.333 23.083V17.5547C27.3335 16.4948 28.44 15.3894 30.001 15.3887L30.2881 15.4014C31.6016 15.5186 32.5355 16.4314 32.6543 17.334L32.667 17.5273V23.0547C32.667 23.7911 33.2636 24.3887 34 24.3887C34.7364 24.3887 35.333 23.7911 35.333 23.0547V17.5273L35.3252 17.2568C35.1663 14.5818 32.6641 12.8363 30.2412 12.7275L29.999 12.7217C29.085 12.7222 28.1529 12.9601 27.3281 13.3945C27.2743 12.7075 26.7008 12.166 26 12.166ZM12.0283 6.66699C11.34 6.66699 10.7729 7.1883 10.7021 7.8584L10.6943 7.99512L10.667 14.9951V15.0049L10.6943 22.6719L10.7021 22.8076C10.7728 23.4798 11.3428 24.0025 12.0332 24C12.7235 23.9973 13.2888 23.4704 13.3545 22.7979L13.3613 22.6621L13.3379 16.333H18.5L18.6367 16.3262C19.3089 16.2577 19.833 15.6902 19.833 15C19.833 14.3098 19.3089 13.7423 18.6367 13.6738L18.5 13.667H13.3389L13.3555 9.33301H20.0283L20.1641 9.32617C20.8365 9.258 21.3613 8.69044 21.3613 8C21.3613 7.30956 20.8365 6.742 20.1641 6.67383L20.0283 6.66699H12.0283Z" fill="black"/>
</g>
</svg>
