<svg width="46" height="31" viewBox="0 0 46 31" fill="none" xmlns="http://www.w3.org/2000/svg">
<g id="varient=l1-solid">
<path id="Exclude" d="M36 0.665039C41.1556 0.665039 45.335 4.84442 45.335 10V21C45.335 26.1556 41.1556 30.335 36 30.335H10C4.84442 30.335 0.665039 26.1556 0.665039 21V10C0.665039 4.84442 4.84442 0.665039 10 0.665039H36ZM12 6.66699C11.2636 6.667 10.667 7.26363 10.667 8V22.667C10.6671 23.0205 10.8076 23.3594 11.0576 23.6094C11.3077 23.8593 11.6465 24 12 24H20.5L20.6367 23.9932C21.3088 23.9247 21.8328 23.3571 21.833 22.667C21.833 21.9768 21.3089 21.4083 20.6367 21.3398L20.5 21.333H13.333V8L13.3262 7.86328C13.2577 7.19114 12.6902 6.66699 12 6.66699ZM32.0303 6.75391C31.5451 6.56942 31.0001 6.68393 30.6309 7.04004L30.5596 7.11426L27.0039 11.1143C26.5147 11.6646 26.564 12.5068 27.1143 12.9961C27.6646 13.4853 28.5068 13.436 28.9961 12.8857L30.2227 11.5059V22.667C30.2228 23.4031 30.8196 23.9998 31.5557 24C32.2919 24 32.8895 23.4032 32.8896 22.667V8C32.8896 7.44656 32.5475 6.95073 32.0303 6.75391Z" fill="black"/>
</g>
</svg>
