<svg width="46" height="31" viewBox="0 0 46 31" fill="none" xmlns="http://www.w3.org/2000/svg">
<g id="varient=lb-solid">
<path id="Exclude" d="M36 0.665039C41.1556 0.665039 45.335 4.84442 45.335 10V21C45.335 26.1556 41.1556 30.335 36 30.335H10C4.84442 30.335 0.665039 26.1556 0.665039 21V10C0.665039 4.84442 4.84442 0.665039 10 0.665039H36ZM12.333 6.66699C11.5967 6.66713 11 7.26371 11 8V22.667C11.0001 23.0204 11.1407 23.3594 11.3906 23.6094C11.6406 23.8593 11.9796 23.9999 12.333 24H20.833L20.9697 23.9932C21.6418 23.9247 22.1659 23.3571 22.166 22.667C22.166 21.9768 21.6419 21.4083 20.9697 21.3398L20.833 21.333H13.666V8L13.6592 7.86328C13.5907 7.19115 13.0232 6.66699 12.333 6.66699ZM25.667 6.66699C24.9768 6.66699 24.4093 7.19115 24.3408 7.86328L24.334 8V22.667C24.3342 23.4032 24.9307 24 25.667 24H31.5547C34.3736 23.9996 36.3338 21.4189 36.334 18.667C36.334 16.8365 35.4658 15.0824 34.0557 14.1123C34.6461 13.3421 35 12.3849 35 11.333C34.9998 8.70564 32.797 6.66729 30.1953 6.66699H25.667ZM31.5547 16C32.5419 16.0004 33.667 17.0009 33.667 18.667C33.6668 20.3329 32.5418 21.3326 31.5547 21.333H27V16H31.5547ZM30.1953 9.33301C31.4276 9.3333 32.3338 10.2797 32.334 11.333C32.334 12.3865 31.4277 13.3327 30.1953 13.333H27V9.33301H30.1953Z" fill="black"/>
</g>
</svg>
