<svg width="46" height="31" viewBox="0 0 46 31" fill="none" xmlns="http://www.w3.org/2000/svg">
<g id="varient=lt-solid">
<path id="Exclude" d="M36 0.665039C41.1556 0.665039 45.335 4.84442 45.335 10V21C45.335 26.1556 41.1556 30.335 36 30.335H10C4.84442 30.335 0.665039 26.1556 0.665039 21V10C0.665039 4.84442 4.84442 0.665039 10 0.665039H36ZM12.333 6.66699C11.5967 6.66713 11 7.26371 11 8V22.667C11.0001 23.0204 11.1407 23.3594 11.3906 23.6094C11.6406 23.8593 11.9796 23.9999 12.333 24H20.833L20.9697 23.9932C21.6418 23.9247 22.1659 23.3571 22.166 22.667C22.166 21.9768 21.6419 21.4083 20.9697 21.3398L20.833 21.333H13.666V8L13.6592 7.86328C13.5907 7.19115 13.0232 6.66699 12.333 6.66699ZM25 6.66699C24.2636 6.66699 23.667 7.26362 23.667 8C23.667 8.73638 24.2636 9.33301 25 9.33301H28.167V22.667C28.1672 23.4032 28.7637 24 29.5 24C30.2363 24 30.8328 23.4032 30.833 22.667V9.33301H34L34.1367 9.32617C34.8089 9.2577 35.333 8.69021 35.333 8C35.333 7.30979 34.8089 6.7423 34.1367 6.67383L34 6.66699H25Z" fill="black"/>
</g>
</svg>
