<svg width="30" height="30" viewBox="0 0 30 30" fill="none" xmlns="http://www.w3.org/2000/svg">
<path d="M14.666 1.47736e-06C17.9662 1.47736e-06 20.5554 -0.00253846 22.5215 0.215822C24.4775 0.433155 26.1117 0.893357 27.2754 2.05664C28.4391 3.22031 28.8988 4.8544 29.1162 6.81055C29.3347 8.77664 29.333 11.3655 29.333 14.666C29.333 17.9665 29.3346 20.5554 29.1162 22.5215C28.8988 24.4779 28.4392 26.1116 27.2754 27.2754C26.1116 28.4391 24.4778 28.8988 22.5215 29.1162C20.5554 29.3346 17.9663 29.333 14.666 29.333C11.3656 29.333 8.77659 29.3347 6.81055 29.1162C4.8545 28.8988 3.22027 28.439 2.05664 27.2754C0.893357 26.1117 0.433155 24.4775 0.215822 22.5215C-0.00256589 20.5554 1.47719e-06 17.9664 1.47719e-06 14.666C1.24568e-06 11.3655 -0.00263321 8.77664 0.215822 6.81055C0.433202 4.8544 0.893039 3.22034 2.05664 2.05664C3.22029 0.892997 4.85445 0.433224 6.81055 0.215822C8.77659 -0.0026272 11.3656 1.09792e-06 14.666 1.47736e-06ZM9 17.998C8.26282 17.9981 7.66514 18.5958 7.66504 19.333C7.66504 20.0703 8.26276 20.6679 9 20.668H20C20.7373 20.668 21.335 20.0703 21.335 19.333C21.3349 18.5958 20.7372 17.998 20 17.998H9ZM9 12.998C8.26282 12.9981 7.66514 13.5958 7.66504 14.333C7.66504 15.0703 8.26276 15.6679 9 15.668H20C20.7373 15.668 21.335 15.0703 21.335 14.333C21.3349 13.5958 20.7372 12.998 20 12.998H9ZM9 7.99805C8.26282 7.99811 7.66514 8.59583 7.66504 9.33301C7.66504 10.0703 8.26276 10.6679 9 10.668H20C20.7373 10.668 21.335 10.0703 21.335 9.33301C21.3349 8.59579 20.7372 7.99805 20 7.99805H9Z" fill="black"/>
</svg>
