<svg width="46" height="31" viewBox="0 0 46 31" fill="none" xmlns="http://www.w3.org/2000/svg">
<g id="varient=r2-solid">
<path id="Exclude" d="M36 0.665039C41.1556 0.665039 45.335 4.84442 45.335 10V21C45.335 26.1556 41.1556 30.335 36 30.335H10C4.84442 30.335 0.665039 26.1556 0.665039 21V10C0.665039 4.84442 4.84442 0.665039 10 0.665039H36ZM12.0283 6.66699C11.3397 6.66699 10.7725 7.18885 10.7021 7.85938L10.6943 7.99512L10.667 15.9951V16.0059L10.6943 22.6719L10.7021 22.8086C10.7733 23.4805 11.343 24.0027 12.0332 24C12.7234 23.9971 13.2898 23.4703 13.3555 22.7979L13.3613 22.6611L13.3389 17.333H15.7734L19.3848 23.3525L19.4609 23.4658C19.8654 24.0072 20.6219 24.1648 21.2139 23.8096C21.8057 23.4544 22.0225 22.7131 21.7354 22.1016L21.6709 21.9805L18.5811 16.832C20.3181 15.9244 21.3603 13.9218 21.3613 12.001L21.3555 11.7588C21.2431 9.25512 19.3831 6.66699 16.5557 6.66699H12.0283ZM29.9668 6.66699C28.5668 6.67202 27.2327 7.15165 26.2393 8.10156C25.2355 9.06156 24.667 10.4191 24.667 12L24.6738 12.1367C24.7423 12.8089 25.3098 13.333 26 13.333C26.6902 13.333 27.2577 12.8089 27.3262 12.1367L27.333 12C27.333 11.081 27.6502 10.4423 28.082 10.0293C28.5241 9.60653 29.1755 9.33584 29.9766 9.33301L30.1094 9.33691C31.4737 9.41337 32.6386 10.7281 32.6387 12C32.6387 12.6118 32.3101 13.5125 31.5977 14.6445C30.9106 15.7361 29.9737 16.8774 29.0049 17.9307C28.0409 18.9787 27.0723 19.91 26.3428 20.5811C25.9789 20.9158 25.6761 21.1838 25.4658 21.3672C25.361 21.4586 25.2795 21.5293 25.2246 21.5762C25.1973 21.5995 25.1765 21.6176 25.1631 21.6289C25.1564 21.6346 25.1515 21.6391 25.1484 21.6416L25.1445 21.6436C24.7142 22.0034 24.5557 22.5948 24.7471 23.1221C24.9386 23.6491 25.4392 24 26 24H34.5L34.6367 23.9932C35.3088 23.9247 35.8329 23.3571 35.833 22.667C35.833 21.9768 35.3089 21.4083 34.6367 21.3398L34.5 21.333H29.4209C29.9121 20.8493 30.4388 20.3103 30.9668 19.7363C31.9907 18.6232 33.0469 17.3477 33.8545 16.0645C34.6368 14.8214 35.3057 13.3882 35.3057 12C35.3056 9.39698 33.1086 6.82252 30.2461 6.67383L29.9668 6.66699ZM16.5557 9.33301C17.5169 9.33301 18.556 10.3044 18.6816 11.7119L18.6943 11.999C18.6936 13.5602 17.5884 14.6668 16.5283 14.667H13.3379L13.3564 9.33301H16.5557Z" fill="black"/>
</g>
</svg>
