<svg width="46" height="31" viewBox="0 0 46 31" fill="none" xmlns="http://www.w3.org/2000/svg">
<g id="varient=r3-solid">
<path id="Exclude" d="M36 0.665039C41.1556 0.665039 45.335 4.84442 45.335 10V21C45.335 26.1556 41.1556 30.335 36 30.335H10C4.84442 30.335 0.665039 26.1556 0.665039 21V10C0.665039 4.84442 4.84442 0.665039 10 0.665039H36ZM12.0283 6.66699C11.3397 6.66699 10.7725 7.18885 10.7021 7.85938L10.6943 7.99512L10.667 15.9951V16.0059L10.6943 22.6719L10.7021 22.8086C10.7733 23.4805 11.343 24.0027 12.0332 24C12.7234 23.9971 13.2898 23.4703 13.3555 22.7979L13.3613 22.6611L13.3389 17.333H15.7734L19.3848 23.3525L19.4609 23.4658C19.8654 24.0072 20.6219 24.1648 21.2139 23.8096C21.8057 23.4544 22.0225 22.7131 21.7354 22.1016L21.6709 21.9805L18.5811 16.832C20.3181 15.9244 21.3603 13.9218 21.3613 12.001L21.3555 11.7588C21.2431 9.25512 19.3831 6.66699 16.5557 6.66699H12.0283ZM30.5283 6.66699C29.112 6.66699 27.952 6.95349 27.1377 7.24512C26.7302 7.39107 26.4066 7.53899 26.1777 7.65527C26.0632 7.71346 25.972 7.76422 25.9053 7.80273C25.8719 7.82198 25.8443 7.83776 25.8232 7.85059C25.8129 7.8569 25.8042 7.86261 25.7969 7.86719L25.7822 7.87598L25.7803 7.87793C25.7819 7.88127 25.8134 7.93095 26.3184 8.7168L25.7793 7.87793C25.1599 8.27599 24.9801 9.10126 25.3779 9.7207C25.7751 10.3386 26.5969 10.5183 27.2158 10.124V10.125L27.2188 10.123L27.2197 10.1221L27.2383 10.1113C27.2663 10.0951 27.316 10.0677 27.3857 10.0322C27.5259 9.96103 27.7458 9.85888 28.0361 9.75488C28.6179 9.54653 29.4727 9.33301 30.5283 9.33301C31.3639 9.3331 31.8771 9.65573 32.1973 10.0137C32.5618 10.4212 32.667 10.8625 32.667 11C32.667 12.0905 32.1096 12.6148 31.4238 12.9434C31.0598 13.1178 30.6791 13.2191 30.3789 13.2754C30.2324 13.3029 30.1128 13.318 30.0342 13.3262C30.0031 13.3294 29.9784 13.3317 29.9619 13.333H27.5C26.7636 13.333 26.167 13.9306 26.167 14.667C26.1672 15.4032 26.7637 16 27.5 16H30C30.9198 16 31.9673 16.0909 32.7539 16.5098C33.1213 16.7054 33.4125 16.9636 33.6201 17.3145C33.8288 17.6672 34 18.1942 34 19C34 19.6984 33.774 20.2334 33.373 20.6035C32.964 20.9811 32.2128 21.333 30.8896 21.333C29.0575 21.333 27.9851 21.0974 27.416 20.9043C27.1326 20.8081 26.9743 20.7226 26.9082 20.6826C26.8751 20.6625 26.8639 20.6536 26.8711 20.6592C26.8747 20.662 26.8827 20.6682 26.8945 20.6787C26.9004 20.6839 26.9074 20.6901 26.915 20.6973C26.9189 20.7009 26.9235 20.7048 26.9277 20.709C26.9299 20.7111 26.9323 20.7136 26.9346 20.7158C26.9357 20.7169 26.9373 20.7176 26.9385 20.7188L26.9395 20.7207C26.4179 20.2027 25.575 20.2049 25.0557 20.7256C24.5361 21.247 24.5374 22.0905 25.0586 22.6104L26.125 21.541C26.0853 21.5809 26.0437 21.6232 26 21.667C25.1156 22.5538 25.0629 22.6082 25.0605 22.6123L25.0625 22.6143C25.0636 22.6154 25.0643 22.617 25.0654 22.6182C25.068 22.6206 25.0706 22.6234 25.0732 22.626C25.0786 22.6311 25.0849 22.636 25.0908 22.6416C25.1026 22.6527 25.1157 22.6652 25.1299 22.6777C25.1582 22.7028 25.1912 22.7308 25.2295 22.7607C25.3067 22.821 25.4049 22.8893 25.5264 22.9629C25.7698 23.1104 26.1055 23.2759 26.5586 23.4297C27.4626 23.7365 28.8352 24 30.8896 24C32.6763 24 34.1475 23.5191 35.1826 22.5635C36.2259 21.6003 36.667 20.3016 36.667 19C36.667 17.8059 36.4089 16.7908 35.915 15.9561C35.4471 15.1653 34.8083 14.6097 34.125 14.2236C34.8179 13.4801 35.333 12.4368 35.333 11C35.333 10.1375 34.938 9.07875 34.1846 8.23633C33.3868 7.34441 32.1643 6.66709 30.5283 6.66699ZM16.5557 9.33301C17.5169 9.33301 18.556 10.3044 18.6816 11.7119L18.6943 11.999C18.6936 13.5602 17.5884 14.6668 16.5283 14.667H13.3379L13.3564 9.33301H16.5557Z" fill="black"/>
</g>
</svg>
