<svg width="46" height="31" viewBox="0 0 46 31" fill="none" xmlns="http://www.w3.org/2000/svg">
<g id="varient=r3-twotone">
<g id="Group 31">
<mask id="mask0_27_188" style="mask-type:luminance" maskUnits="userSpaceOnUse" x="0" y="0" width="46" height="31">
<g id="Group">
<rect id="Rectangle 1" x="2" y="2" width="42" height="27" rx="8" fill="#555555" stroke="#555555" stroke-width="2.67"/>
<path id="Vector" d="M16.528 16C18.528 16 20.027 14.0757 20.028 12C20.029 9.93152 18.528 8 16.556 8H12.028L12 16M16.528 16H12M16.528 16L20.528 22.6667M12 16L12.028 22.6667" stroke="white" stroke-width="2.66667" stroke-linecap="round" stroke-linejoin="round"/>
<path id="Vector_2" d="M30 14.6667C30 14.6667 34 14.5 34 11C34 10 33 8 30.528 8C28.056 8 26.5 9 26.5 9M30 14.6667H27.5M30 14.6667C31.9033 14.6667 35.3333 15 35.3333 19C35.3333 21 34 22.6667 30.89 22.6667C27.0027 22.6667 26 21.6667 26 21.6667" stroke="white" stroke-width="2.66667" stroke-linecap="round" stroke-linejoin="round"/>
</g>
</mask>
<g mask="url(#mask0_27_188)">
<path id="Vector_3" d="M-1 -1H47V31H-1V-1Z" fill="black"/>
</g>
</g>
</g>
</svg>
