<svg width="46" height="31" viewBox="0 0 46 31" fill="none" xmlns="http://www.w3.org/2000/svg">
<g id="varient=rb-solid">
<path id="Exclude" d="M36 0.665039C41.1556 0.665039 45.335 4.84442 45.335 10V21C45.335 26.1556 41.1556 30.335 36 30.335H10C4.84442 30.335 0.665039 26.1556 0.665039 21V10C0.665039 4.84442 4.84442 0.665039 10 0.665039H36ZM12.0283 6.66699C11.3397 6.66699 10.7725 7.18885 10.7021 7.85938L10.6943 7.99512L10.667 15.9951V16.0059L10.6943 22.6719L10.7021 22.8086C10.7733 23.4805 11.343 24.0027 12.0332 24C12.7234 23.9971 13.2898 23.4703 13.3555 22.7979L13.3613 22.6611L13.3389 17.333H15.7734L19.3848 23.3525L19.4609 23.4658C19.8654 24.0072 20.6219 24.1648 21.2139 23.8096C21.8057 23.4544 22.0225 22.7131 21.7354 22.1016L21.6709 21.9805L18.5811 16.832C20.3181 15.9244 21.3603 13.9218 21.3613 12.001L21.3555 11.7588C21.2431 9.25512 19.3831 6.66699 16.5557 6.66699H12.0283ZM26 6.66699C25.3098 6.66699 24.7423 7.19114 24.6738 7.86328L24.667 8V22.667C24.6672 23.4032 25.2637 24 26 24H31.8877C34.7067 23.9998 36.6668 21.419 36.667 18.667C36.667 16.8365 35.7989 15.0824 34.3887 14.1123C34.9791 13.3421 35.333 12.385 35.333 11.333C35.3328 8.70555 33.1301 6.66716 30.5283 6.66699H26ZM31.8877 16C32.875 16.0002 34 17.0008 34 18.667C33.9999 20.333 32.8749 21.3328 31.8877 21.333H27.333V16H31.8877ZM16.5557 9.33301C17.5169 9.33301 18.556 10.3044 18.6816 11.7119L18.6943 11.999C18.6936 13.5602 17.5884 14.6668 16.5283 14.667H13.3379L13.3564 9.33301H16.5557ZM30.5283 9.33301C31.7607 9.33317 32.6668 10.2796 32.667 11.333C32.667 12.3865 31.7608 13.3328 30.5283 13.333H27.333V9.33301H30.5283Z" fill="black"/>
</g>
</svg>
