<svg width="30" height="30" viewBox="0 0 30 30" fill="none" xmlns="http://www.w3.org/2000/svg">
<path d="M14.666 1.47736e-06C17.9662 1.47736e-06 20.5554 -0.00253846 22.5215 0.215822C24.4775 0.433155 26.1117 0.893357 27.2754 2.05664C28.4391 3.22031 28.8988 4.8544 29.1162 6.81055C29.3347 8.77664 29.333 11.3655 29.333 14.666C29.333 17.9665 29.3346 20.5554 29.1162 22.5215C28.8988 24.4779 28.4392 26.1116 27.2754 27.2754C26.1116 28.4391 24.4778 28.8988 22.5215 29.1162C20.5554 29.3346 17.9663 29.333 14.666 29.333C11.3656 29.333 8.77659 29.3347 6.81055 29.1162C4.8545 28.8988 3.22027 28.439 2.05664 27.2754C0.893357 26.1117 0.433155 24.4775 0.215822 22.5215C-0.00256589 20.5554 1.47719e-06 17.9664 1.47719e-06 14.666C1.24568e-06 11.3655 -0.00263321 8.77664 0.215822 6.81055C0.433202 4.8544 0.893039 3.22034 2.05664 2.05664C3.22029 0.892997 4.85445 0.433224 6.81055 0.215822C8.77659 -0.0026272 11.3656 1.09792e-06 14.666 1.47736e-06ZM9.10938 6.2168C8.6956 6.00463 8.20056 6.02323 7.80371 6.26563C7.40699 6.50811 7.1651 6.94031 7.16504 7.40527V21.2607C7.16504 21.7257 7.40704 22.1579 7.80371 22.4004C8.20061 22.6428 8.69557 22.6615 9.10938 22.4492L22.6094 15.5205C23.0548 15.2919 23.335 14.8336 23.335 14.333C23.3349 13.895 23.1206 13.4889 22.7686 13.2412L22.6094 13.1455L9.10938 6.2168Z" fill="black"/>
</svg>
