<svg width="46" height="31" viewBox="0 0 46 31" fill="none" xmlns="http://www.w3.org/2000/svg">
<g id="varient=rs-solid">
<path id="Vector" d="M36 27C36 27 31 29 22.9999 29C14.9999 29 10 27 10 27" stroke="black" stroke-width="2.66667" stroke-linecap="round" stroke-linejoin="round"/>
<path id="Exclude" d="M23 0.666992C28.97 0.666992 34.4407 1.93162 38.4678 4.04102C42.4316 6.11733 45.333 9.21781 45.333 13C45.333 16.7822 42.4316 19.8827 38.4678 21.959C34.4407 24.0684 28.97 25.333 23 25.333C17.03 25.333 11.5593 24.0684 7.53223 21.959C3.56835 19.8827 0.666992 16.7822 0.666992 13C0.666992 9.21781 3.56835 6.11733 7.53223 4.04102C11.5593 1.93162 17.03 0.666992 23 0.666992ZM28.5 6.66504C27.9492 6.66504 26.8697 6.76552 25.874 7.21387C24.8443 7.67765 23.665 8.65371 23.665 10.4141C23.6652 11.8493 24.6545 12.6316 25.4727 13.0615C25.8837 13.2775 26.337 13.4531 26.7539 13.6064C27.1994 13.7703 27.5908 13.9039 28.0107 14.0693C28.9246 14.4295 29.6567 14.7248 30.1738 15.0645C30.6825 15.3987 30.6652 15.5644 30.665 15.5859C30.665 15.8945 30.5315 16.1257 30.0303 16.3516C29.4947 16.5928 28.8242 16.665 28.5 16.665C28.2106 16.665 27.7225 16.6035 27.2393 16.4131C26.8213 16.2484 26.4701 16.0135 26.2256 15.7002L26.127 15.5605L26.0488 15.4492C25.6306 14.9173 24.8689 14.7783 24.2852 15.1484C23.7014 15.5187 23.5027 16.267 23.8057 16.8721L23.873 16.9912L23.9941 17.1729C24.6187 18.0581 25.4782 18.5891 26.2607 18.8975C27.0899 19.2242 27.9145 19.335 28.5 19.335C29.0508 19.335 30.1303 19.2345 31.126 18.7861C32.1557 18.3223 33.335 17.3463 33.335 15.5859C33.3348 14.2271 32.4398 13.3582 31.6387 12.832C30.8434 12.3098 29.8251 11.9153 28.9893 11.5859C28.5342 11.4066 28.0506 11.2384 27.6758 11.1006C27.2724 10.9522 26.96 10.8261 26.7148 10.6973C26.4672 10.5671 26.3708 10.4757 26.3398 10.4375C26.3341 10.4303 26.335 10.4437 26.335 10.4141C26.335 10.1055 26.4685 9.87426 26.9697 9.64844C27.5053 9.40724 28.1758 9.33496 28.5 9.33496C28.7894 9.33496 29.2775 9.39647 29.7607 9.58691C30.1787 9.75164 30.5299 9.98648 30.7744 10.2998L30.873 10.4395L30.9512 10.5508C31.3694 11.0827 32.1311 11.2217 32.7148 10.8516C33.2986 10.4813 33.4973 9.73302 33.1943 9.12793L33.127 9.00879L33.0059 8.82715C32.3813 7.94193 31.5218 7.41092 30.7393 7.10254C29.9101 6.77582 29.0855 6.66504 28.5 6.66504ZM14.0234 6.66699C13.3352 6.66699 12.768 7.1883 12.6973 7.8584L12.6895 7.99414L12.667 13.5117V13.5244L12.6895 18.0068L12.6973 18.1436C12.7692 18.8153 13.3401 19.3366 14.0303 19.333C14.7203 19.3293 15.2856 18.8023 15.3506 18.1299L15.3564 17.9932L15.3398 14.8506H17.04L19.9248 18.7881L20.0107 18.8936C20.4631 19.3956 21.2312 19.4831 21.7881 19.0752C22.3448 18.6672 22.4926 17.9088 22.1504 17.3262L22.0752 17.2119L19.9033 14.2471C21.1254 13.5124 21.9219 12.1914 21.9229 10.7598L21.918 10.5566C21.8077 8.46638 19.9869 6.66706 17.7168 6.66699H14.0234ZM17.7168 9.33301C18.5549 9.33307 19.175 9.98947 19.249 10.6299L19.2559 10.7578C19.2555 11.4485 18.627 12.1835 17.7168 12.1836H15.3389L15.3506 9.33301H17.7168Z" fill="black"/>
</g>
</svg>
