<svg width="30" height="30" viewBox="0 0 30 30" fill="none" xmlns="http://www.w3.org/2000/svg">
<g id="variant=square-solid">
<path id="Exclude" d="M14.6664 0.666992C22.7664 0.666992 29.3332 7.23298 29.3334 15.333C29.3334 23.4332 22.7666 30 14.6664 30C6.56635 29.9998 0.000366211 23.4331 0.000366211 15.333C0.000542489 7.23309 6.56646 0.667168 14.6664 0.666992ZM8.00037 7.33398C7.31015 7.33398 6.74267 7.85813 6.67419 8.53027L6.66736 8.66699V22C6.66753 22.7362 7.26409 23.334 8.00037 23.334H21.3334C22.0695 23.3338 22.6672 22.7361 22.6674 22V8.66699C22.6674 7.97678 22.1422 7.4093 21.4701 7.34082L21.3334 7.33398H8.00037ZM20.0004 10V20.667H9.33337V10H20.0004Z" fill="black"/>
</g>
</svg>
