<svg width="30" height="30" viewBox="0 0 30 30" fill="none" xmlns="http://www.w3.org/2000/svg">
<g id="varient=triangle-solid">
<path id="Exclude" d="M14.6664 0.666992C22.7664 0.666992 29.3332 7.23298 29.3334 15.333C29.3334 23.4332 22.7666 30 14.6664 30C6.56635 29.9998 0.000366211 23.4331 0.000366211 15.333C0.000542489 7.23309 6.56646 0.667168 14.6664 0.666992ZM14.6664 5.33398C14.2568 5.3341 13.8733 5.52198 13.6224 5.83789L13.5228 5.98145L5.52283 19.3145C5.27603 19.7263 5.26967 20.2394 5.50623 20.6572C5.74286 21.0751 6.1862 21.3339 6.66638 21.334H22.6664C23.1466 21.334 23.5898 21.075 23.8265 20.6572C24.0632 20.2393 24.0569 19.7263 23.8099 19.3145L15.8099 5.98145C15.569 5.57984 15.1347 5.33398 14.6664 5.33398ZM20.3109 18.667H9.02185L14.6664 9.25781L20.3109 18.667Z" fill="black"/>
</g>
</svg>
