<svg width="30" height="30" viewBox="0 0 30 30" fill="none" xmlns="http://www.w3.org/2000/svg">
<path d="M14.666 0C17.9662 0 20.5554 -0.00253993 22.5215 0.21582C24.4775 0.433154 26.1117 0.893355 27.2754 2.05664C28.4391 3.22031 28.8988 4.85439 29.1162 6.81055C29.3347 8.77664 29.333 11.3655 29.333 14.666C29.333 17.9665 29.3346 20.5554 29.1162 22.5215C28.8988 24.4779 28.4392 26.1116 27.2754 27.2754C26.1116 28.4391 24.4778 28.8988 22.5215 29.1162C20.5554 29.3346 17.9663 29.333 14.666 29.333C11.3656 29.333 8.77659 29.3347 6.81055 29.1162C4.8545 28.8988 3.22026 28.439 2.05664 27.2754C0.893355 26.1117 0.433154 24.4775 0.21582 22.5215C-0.00256737 20.5554 0 17.9664 0 14.666C-2.31507e-07 11.3655 -0.00263469 8.77664 0.21582 6.81055C0.4332 4.85439 0.893037 3.22034 2.05664 2.05664C3.22029 0.892995 4.85445 0.433223 6.81055 0.21582C8.77659 -0.00262867 11.3656 -3.79442e-07 14.666 0ZM14 5.99805C13.562 5.99809 13.1559 6.21247 12.9082 6.56445L12.8125 6.72363L5.88379 20.2236C5.67156 20.6374 5.6903 21.1324 5.93262 21.5293C6.17511 21.926 6.60727 22.1679 7.07227 22.168H20.9277C21.3928 22.168 21.8249 21.9261 22.0674 21.5293C22.3098 21.1324 22.3285 20.6374 22.1162 20.2236L15.1875 6.72363C14.9589 6.27836 14.5005 5.99805 14 5.99805Z" fill="black"/>
</svg>
