<svg width="30" height="30" viewBox="0 0 30 30" fill="none" xmlns="http://www.w3.org/2000/svg">
<g id="varient=x-solid">
<path id="Exclude" d="M14.6664 0.666992C22.7664 0.666992 29.3332 7.23298 29.3334 15.333C29.3334 23.4332 22.7666 30 14.6664 30C6.56635 29.9998 0.000366211 23.4331 0.000366211 15.333C0.000542489 7.23309 6.56646 0.667168 14.6664 0.666992ZM21.6088 8.39062C21.1205 7.90273 20.3482 7.8716 19.8246 8.29883L19.724 8.39062L14.6664 13.4482L9.60876 8.39062L9.50818 8.29883C8.98448 7.87182 8.21211 7.90252 7.724 8.39062C7.23591 8.87874 7.2052 9.65112 7.6322 10.1748L7.724 10.2754L12.7816 15.333L7.724 20.3906C7.20344 20.9112 7.20365 21.7547 7.724 22.2754C8.24469 22.7961 9.08806 22.7961 9.60876 22.2754L14.6664 17.2178L19.724 22.2754L19.8246 22.3672C20.3483 22.7945 21.1205 22.7636 21.6088 22.2754C22.097 21.7872 22.1279 21.0149 21.7006 20.4912L21.6088 20.3906L16.5511 15.333L21.6088 10.2754L21.7006 10.1748C22.1279 9.6511 22.097 8.87885 21.6088 8.39062Z" fill="black"/>
</g>
</svg>
