<svg width="30" height="30" viewBox="0 0 30 30" fill="none" xmlns="http://www.w3.org/2000/svg">
<g id="varient=y-solid">
<path id="Exclude" d="M14.6664 0.666992C22.7664 0.666992 29.3332 7.23298 29.3334 15.333C29.3334 23.4332 22.7666 30 14.6664 30C6.56635 29.9998 0.000366211 23.4331 0.000366211 15.333C0.000542489 7.23309 6.56646 0.667168 14.6664 0.666992ZM9.70837 8.50098C9.28729 7.97272 8.52622 7.83871 7.94568 8.21191C7.3652 8.58516 7.17113 9.33318 7.47693 9.93555L7.54529 10.0537L13.3334 19.0576V24C13.3335 24.7361 13.9303 25.3328 14.6664 25.333C15.4027 25.333 15.9992 24.7362 15.9994 24V19.0576L21.7875 10.0537C22.1856 9.43429 22.0065 8.6101 21.3871 8.21191C20.7677 7.81407 19.9434 7.99307 19.5453 8.6123L14.6664 16.2012L9.78748 8.6123L9.70837 8.50098Z" fill="black"/>
</g>
</svg>
